<?xml version="1.0" encoding="UTF-8"?><svg id="a" xmlns="http://www.w3.org/2000/svg" viewBox="0 0 96 96"><defs><style>.b{fill:none;}</style></defs><path d="M16.12,7.02H6.83v3.1h9.29v-3.1Z"/><path d="M22.32,7.02h-3.1v3.1h3.1v-3.1Z"/><g><path class="b" d="M17.15,40.8l14.04-14.04c1.39-2.07,3.74-3.44,6.41-3.44h35.07c4.24,0,7.71,3.47,7.71,7.61v35.16c0,1.66-.54,3.2-1.44,4.47h14.29V3.01H3.03V70.56H13.71v-23.35c0-2.66,1.37-5.02,3.44-6.41Z"/><polygon class="b" points="22.53 39.5 29.89 39.5 29.89 32.14 22.53 39.5"/><path class="b" d="M56.48,42.39c2.6,0,4.72,2.12,4.82,4.82,0-2.7-2.22-4.82-4.82-4.82Z"/><path class="b" d="M76.49,68.98c.62-.82,1-1.82,1-2.89v-.1c0,1.12-.4,2.14-1.04,2.95l.04,.04Z"/><path class="b" d="M60.48,40.64l14.05-14.05c-.58-.25-1.21-.38-1.87-.38H37.6c-1.1,0-2.09,.38-2.89,.99l.07,.07-1.28,1.28c-.45,.73-.71,1.58-.71,2.48v8.48h23.7c1.46,0,2.83,.42,4,1.14Z"/><path d="M61.3,47.21v23.35h2.79v-23.35c0-1.72-.56-3.3-1.51-4.59l-1.89,1.89-2.04-2.04,1.81-1.81c-1.18-.73-2.57-1.16-4.08-1.16h-23.51v2.89h23.6c2.6,0,4.82,2.12,4.82,4.82Z"/><path d="M64.19,47.21c0-1.73-.59-3.33-1.56-4.62l-.04,.04c.95,1.28,1.51,2.87,1.51,4.59v23.35h.1v-23.35Z"/><path d="M56.48,39.5h-.1c1.51,0,2.9,.43,4.08,1.16l.02-.02c-1.17-.72-2.54-1.14-4-1.14Z"/><path d="M17.31,44.72l-.25,.25-2.04-2.04,2.13-2.13c-2.07,1.39-3.44,3.74-3.44,6.41v23.35h2.89v-23.35c0-.9,.27-1.75,.71-2.48Z"/><path d="M64.09,73.8v-.1h-2.79v8.48h-.1c0,.99-.31,1.93-.85,2.71l3.83-3.83v-7.26h-.1Z"/><path d="M29.89,39.6v-.1h-7.36l-3.6,3.6c.72-.44,1.56-.71,2.48-.71h8.57v-2.79h-.1Z"/><path d="M58.66,86.58l.41-.41c-.76,.52-1.69,.83-2.69,.83H21.41c-2.6,0-4.82-2.12-4.82-4.82v-8.62h-2.89v8.72c0,4.24,3.47,7.71,7.71,7.71H56.48c2.77,0,5.21-1.49,6.56-3.7l-2.34,2.34-2.04-2.04Z"/><path d="M80.37,30.93c0-4.14-3.47-7.61-7.71-7.61H37.6c-2.66,0-5.02,1.37-6.41,3.44l1.54-1.54,1.93,1.93c.82-.64,1.84-1.03,2.94-1.03h35.07c.69,0,1.34,.15,1.94,.41l1.77-1.77,2.04,2.04-1.64,1.64c.45,.73,.71,1.58,.71,2.49v35.16c0,1.08-.38,2.08-1,2.89l1.57,1.57h.87c.9-1.26,1.44-2.8,1.44-4.47V30.93Z"/><path d="M77.48,31.02v-.1c0-.9-.27-1.75-.71-2.49l-.03,.03c.47,.74,.75,1.6,.75,2.55Z"/><path d="M37.6,26.21h35.07c.66,0,1.29,.14,1.87,.38l.07-.07c-.59-.26-1.24-.41-1.94-.41H37.6c-1.1,0-2.11,.39-2.94,1.03l.05,.05c.8-.61,1.79-.99,2.89-.99Z"/><rect x="64.09" y="73.7" width=".1" height=".1"/><rect x="29.89" y="39.5" width=".1" height=".1"/><polygon points="32.78 39.5 32.78 39.6 29.99 39.6 29.99 42.39 32.88 42.39 32.88 39.5 32.78 39.5"/><rect x="29.99" y="39.5" width="2.79" height=".1"/><path d="M22.53,39.5l7.36-7.36v-1.12c0-1.58,.48-3.04,1.3-4.27l-14.04,14.04c1.22-.82,2.69-1.3,4.27-1.3h1.12Z"/><path d="M17.31,44.72l1.62-1.62c-.66,.41-1.22,.96-1.62,1.62Z"/><path d="M21.41,39.5c-1.58,0-3.04,.48-4.27,1.3l-2.13,2.13,2.04,2.04,.25-.25c.4-.66,.96-1.21,1.62-1.62l3.6-3.6h-1.12Z"/><path d="M29.89,32.14l3.49-3.49c.32-.59,.76-1.11,1.28-1.51l-1.93-1.93-1.54,1.54c-.82,1.22-1.3,2.69-1.3,4.27v1.12Z"/><path d="M33.38,28.66l.12-.12c.32-.52,.73-.98,1.21-1.35l-.05-.05c-.53,.41-.96,.92-1.28,1.51Z"/><path d="M60.36,84.89l-1.28,1.28c.51-.34,.94-.78,1.28-1.28Z"/><path d="M74.54,73.56c-.6,.15-1.23,.24-1.88,.24h-1.22l-7.26,7.26v1.22c0,1.47-.42,2.84-1.14,4.01l12.73-12.73h-1.23Z"/><path d="M64.19,81.06l-3.83,3.83c-.34,.5-.78,.94-1.28,1.28l-.41,.41,2.04,2.04,2.34-2.34c.72-1.17,1.14-2.54,1.14-4.01v-1.22Z"/><path d="M74.93,70.32l-.24,.24h3.37l-1.57-1.57c-.42,.55-.95,1-1.56,1.33Z"/><path d="M71.45,73.8h1.22c.65,0,1.27-.09,1.88-.24h-2.86l-.24,.24Z"/><path d="M62.63,42.58l14.11-14.11c-.53-.84-1.29-1.5-2.2-1.89l-14.05,14.05c.83,.51,1.56,1.17,2.14,1.94Z"/><path d="M60.46,40.66l-1.81,1.81,2.04,2.04,1.89-1.89c-.58-.78-1.29-1.45-2.12-1.96Z"/><path d="M60.48,40.64l-.02,.02c.83,.52,1.55,1.18,2.12,1.96l.04-.04c-.59-.78-1.31-1.44-2.14-1.94Z"/><path d="M76.77,28.44l1.64-1.64-2.04-2.04-1.77,1.77c.91,.4,1.66,1.08,2.17,1.92Z"/><path d="M76.73,28.47l.03-.03c-.51-.84-1.26-1.52-2.17-1.92l-.07,.07c.91,.39,1.67,1.05,2.2,1.89Z"/><path d="M54.94,46.63h-5.78c-.77,0-1.35,.58-1.35,1.35s.58,1.35,1.35,1.35h5.78c.77,0,1.35-.58,1.35-1.35s-.58-1.35-1.35-1.35Z"/><path d="M44.82,46.63c-.39,0-.67,.19-.96,.39-.29,.29-.39,.58-.39,.96s.19,.67,.39,.96c.19,.19,.58,.39,.96,.39s.67-.19,.96-.39c.29-.29,.39-.58,.39-.96s-.19-.67-.39-.96c-.29-.29-.58-.39-.96-.39Z"/><path d="M3.03,70.56V3.01H93.22V70.56h-14.29c-.6,.84-1.37,1.56-2.25,2.1l-.9,.9h20.45V0H.03V73.56H13.71v-3H3.03Z"/><rect x="61.3" y="70.56" width="2.79" height=".26"/><rect x="64.09" y="70.56" width=".1" height=".26"/><rect x="13.71" y="70.56" width="2.89" height="3"/><path d="M78.42,70.91l-1.74,1.74c.88-.54,1.65-1.26,2.25-2.1h-.87l.36,.36Z"/><polygon points="64.19 70.62 61.39 70.62 61.3 70.62 61.3 73.75 64.19 73.75 64.19 70.73 64.19 70.62"/><path d="M74.54,73.56h1.23l.9-.9c-.65,.4-1.37,.71-2.13,.9Z"/><path d="M78.42,70.91l-.36-.36h-3.37l-3,3h2.86c.76-.19,1.48-.5,2.13-.9l1.74-1.74Z"/></g><rect x="2.81" y="12.84" width="92.81" height="3.19"/></svg>